<svg xmlns="http://www.w3.org/2000/svg" width="124" height="62" viewBox="0 0 124 62" fill="none"><path fill-rule="evenodd" clip-rule="evenodd" d="M0 0.668945V52.8758L10.0237 61.9998H123.419V0.668945H0Z" fill="#ED1C24"></path><path fill-rule="evenodd" clip-rule="evenodd" d="M17.0762 45.9009H21.7335V22.9019H17.0762V45.9009Z" fill="white"></path><path fill-rule="evenodd" clip-rule="evenodd" d="M33.9778 32.8453C33.17 32.6856 32.7067 32.6557 32.1854 32.6557C28.9932 32.6557 27.7535 34.9156 27.7535 37.9528V45.5797H23.127V28.9076H27.5241V31.9737C28.5692 29.8114 30.4668 28.5195 32.9719 28.5195C33.3288 28.5195 33.5202 28.5561 33.9778 28.616V32.8453Z" fill="white"></path><path fill-rule="evenodd" clip-rule="evenodd" d="M38.9088 37.2417C38.9088 40.6615 40.407 42.6331 42.9849 42.6331C45.5259 42.6331 47.0207 40.6338 47.0207 37.2073C47.0207 33.8785 45.4923 31.908 42.9189 31.908C40.4417 31.908 38.9088 33.9139 38.9088 37.2417ZM51.6574 37.2426C51.6574 42.6029 48.2325 46.087 42.985 46.087C37.7363 46.087 34.2812 42.5719 34.2812 37.2426C34.2812 31.941 37.7688 28.4214 43.0487 28.4214C48.2325 28.4214 51.6574 31.941 51.6574 37.2426Z" fill="white"></path><path fill-rule="evenodd" clip-rule="evenodd" d="M63.5778 45.5791V35.8497C63.5778 33.7839 63.1862 32.2303 60.7079 32.2303C57.9375 32.2303 57.0581 34.2053 57.0581 36.6271V45.5791H52.4629V28.907H56.8623V31.2323C58.1949 29.457 60.0578 28.4546 62.4444 28.4546C65.9901 28.4546 68.2692 30.5515 68.2692 34.427V45.5791H63.5778Z" fill="white"></path><path fill-rule="evenodd" clip-rule="evenodd" d="M86.1751 26.813V22.5549L69.8652 22.5493V45.5553H74.9841V35.4323H81.854V37.1955L84.0033 35.2471L86.146 33.3055L84.0033 31.3594L81.854 29.4078V31.1698H74.9841V32.8209L72.837 30.8804L70.6943 28.9298L72.837 26.9837L74.9841 25.0365V26.813H86.1751Z" fill="white"></path><path fill-rule="evenodd" clip-rule="evenodd" d="M87.1667 22.5542H93.0833L97.6327 29.8928L102.346 22.5542H107.939L100.495 33.531L108.589 45.5513H102.508L97.4369 37.5984L92.2688 45.5513H86.5469L94.6453 33.5022L87.1667 22.5542Z" fill="white"></path><path fill-rule="evenodd" clip-rule="evenodd" d="M19.396 55.8422C18.7504 55.8422 18.1965 55.6804 17.8239 55.4042L17.7109 54.2055C18.2133 54.6025 18.7593 54.7921 19.3355 54.7921C19.8021 54.7921 20.0617 54.6025 20.0617 54.2942C20.0617 53.9893 19.8827 53.833 19.2393 53.609C18.3364 53.294 17.8564 52.7219 17.8564 52.0122C17.8564 51.1406 18.5154 50.4453 19.6555 50.4453C20.2967 50.4453 20.6983 50.6083 20.9266 50.7536L20.8281 51.8026C20.5831 51.6407 20.1579 51.4788 19.7506 51.4788C19.3053 51.4788 19.095 51.6717 19.095 51.9223C19.095 52.163 19.2729 52.3204 19.8883 52.52C20.7229 52.795 21.3294 53.3672 21.3294 54.1712C21.3294 55.1814 20.6737 55.8422 19.396 55.8422Z" fill="white"></path><path fill-rule="evenodd" clip-rule="evenodd" d="M27.3449 51.5512C26.5661 51.5512 25.8322 52.1832 25.8322 53.1402C25.8322 54.1094 26.5661 54.7381 27.3449 54.7381C28.1258 54.7381 28.8654 54.1094 28.8654 53.1402C28.8654 52.1832 28.1258 51.5512 27.3449 51.5512ZM27.3449 55.8427C25.9105 55.8427 24.5566 54.8025 24.5566 53.1403C24.5566 51.4958 25.9105 50.4546 27.3449 50.4546C28.7837 50.4546 30.1432 51.4958 30.1432 53.1403C30.1432 54.8025 28.7837 55.8427 27.3449 55.8427Z" fill="white"></path><path fill-rule="evenodd" clip-rule="evenodd" d="M33.6465 55.7217V50.5776H34.9075V54.6495H36.9886V55.7217H33.6465Z" fill="white"></path><mask id="mask0" maskUnits="userSpaceOnUse" x="0" y="0" width="124" height="62"><path fill-rule="evenodd" clip-rule="evenodd" d="M0 61.9999H123.436V0H0V61.9999Z" fill="white"></path></mask><g mask="url(#mask0)"><path fill-rule="evenodd" clip-rule="evenodd" d="M40.3574 55.7217H41.6206V50.5776H40.3574V55.7217Z" fill="white"></path><path fill-rule="evenodd" clip-rule="evenodd" d="M46.9686 51.6514H46.5792V54.6498H46.9686C47.8693 54.6498 48.6312 54.1497 48.6312 53.1495C48.6312 52.1493 47.8693 51.6514 46.9686 51.6514ZM47.1152 55.7217H45.3652V50.5776H47.1152C48.6111 50.5776 49.8944 51.5446 49.8944 53.1491C49.8944 54.7526 48.6111 55.7217 47.1152 55.7217Z" fill="white"></path><path fill-rule="evenodd" clip-rule="evenodd" d="M60.4499 51.5767V55.7217H59.1945V51.5701H57.627V50.5776H62.0141V51.5767H60.4499Z" fill="white"></path><path fill-rule="evenodd" clip-rule="evenodd" d="M67.0596 51.5601H66.5215V52.7133H67.0596C67.383 52.7133 67.7108 52.5348 67.7108 52.1345C67.7108 51.7475 67.383 51.5601 67.0596 51.5601ZM68.3654 55.7217L66.969 53.6969H66.5215V55.7217H65.3086V50.5776H67.2454C68.1349 50.5776 68.9203 51.1642 68.9203 52.1345C68.9203 52.7377 68.5634 53.2212 68.127 53.4241L69.7751 55.7217H68.3654Z" fill="white"></path><path fill-rule="evenodd" clip-rule="evenodd" d="M75.0679 52.6744C75.0098 52.5292 74.9516 52.334 74.9035 52.1488H74.8878C74.8475 52.334 74.7837 52.5292 74.7256 52.6744L74.3507 53.7057H75.4428L75.0679 52.6744ZM76.1577 55.7219L75.7493 54.6485H74.043L73.6436 55.7219H72.4531L74.4995 50.5356H75.3667L77.4086 55.7219H76.1577Z" fill="white"></path><path fill-rule="evenodd" clip-rule="evenodd" d="M82.3106 51.6514H81.9213V54.6498H82.3106C83.2136 54.6498 83.9778 54.1497 83.9778 53.1495C83.9778 52.1493 83.2136 51.6514 82.3106 51.6514ZM82.4595 55.7217H80.7051V50.5776H82.4595C83.9554 50.5776 85.241 51.5446 85.241 53.1491C85.241 54.7526 83.9554 55.7217 82.4595 55.7217Z" fill="white"></path><path fill-rule="evenodd" clip-rule="evenodd" d="M88.8223 55.7217H90.081V50.5776H88.8223V55.7217Z" fill="white"></path><path fill-rule="evenodd" clip-rule="evenodd" d="M98.0648 55.7783L96.0497 53.5838C95.7218 53.2301 95.3537 52.7954 95.0796 52.455L95.0628 52.4638C95.0796 52.8265 95.0852 53.2201 95.0852 53.545V55.7217H93.8242V50.5776H94.8424L96.6024 52.496C96.8429 52.7621 97.2077 53.1813 97.4449 53.4796L97.4628 53.4707C97.4449 53.1636 97.4359 52.832 97.4359 52.5115V50.5776H98.698V55.7783H98.0648Z" fill="white"></path><path fill-rule="evenodd" clip-rule="evenodd" d="M105.08 55.8427C103.648 55.8427 102.201 54.9079 102.201 53.1492C102.201 51.375 103.683 50.4546 105.052 50.4546C105.773 50.4546 106.341 50.6331 106.7 50.8682L106.601 51.9649C106.245 51.7065 105.748 51.5369 105.181 51.5369C104.235 51.5369 103.457 52.1634 103.457 53.1824C103.457 54.1494 104.196 54.777 105.14 54.777C105.439 54.777 105.665 54.7293 105.845 54.6229V53.8999H104.901V52.9396H107.001V55.3115C106.564 55.6575 105.92 55.8427 105.08 55.8427Z" fill="white"></path><path fill-rule="evenodd" clip-rule="evenodd" d="M108.184 15.9053H117.373V25.0136L108.184 15.9053Z" fill="white"></path><path fill-rule="evenodd" clip-rule="evenodd" d="M113.258 45.5397V43.3452H113.799L114.36 45.0984L114.902 43.3452H115.434V45.5397H115.096V43.6989L114.525 45.5397H114.191L113.598 43.6712V45.5397H113.258ZM111.918 45.5401V43.6716H111.201V43.3456H113.01V43.6716H112.288V45.5401H111.918Z" fill="white"></path></g></svg>